<?xml version="1.0" encoding="UTF-8" standalone="no"?><!DOCTYPE svg PUBLIC "-//W3C//DTD SVG 1.1//EN" "http://www.w3.org/Graphics/SVG/1.1/DTD/svg11.dtd"><svg width="100%" height="100%" viewBox="0 0 490 491" version="1.1" xmlns="http://www.w3.org/2000/svg" xmlns:xlink="http://www.w3.org/1999/xlink" xml:space="preserve" xmlns:serif="http://www.serif.com/" style="fill-rule:evenodd;clip-rule:evenodd;stroke-linejoin:round;stroke-miterlimit:1.41421;"><g id="Render"><path d="M360.138,373.023c27.725,-4.372 64.451,-14.262 104.004,-56.998c31.461,-18.582 -0.588,169.625 -219.229,174.454c-57.006,0.972 -244.64,-1.702 -244.854,-115.384c-0.519,-275.121 335.895,-374.231 489.708,-374.998c-4.013,165.377 -105.87,208.618 -128.306,216.148c-26.308,-42.666 -73.738,-71.133 -127.894,-71.133c-82.744,0 -149.784,66.452 -149.784,148.469c0,82.017 67.04,148.469 149.784,148.469c53.26,0 100.014,-27.533 126.571,-69.027Zm-247.365,-79.442c0,-66.152 54.055,-119.733 120.794,-119.733c66.738,0 120.793,53.581 120.793,119.733c0,66.153 -54.055,119.733 -120.793,119.733c-66.739,0 -120.794,-53.58 -120.794,-119.733Zm190.673,-10.776l-106.298,-64.057c-9.543,-5.268 -21.562,1.497 -21.562,12.572l0,124.522c0,11.016 11.958,17.84 21.562,12.572l106.298,-60.465c9.905,-5.448 9.905,-19.636 0,-25.144Zm71.011,-39.755c18.542,-7.812 62.645,-30.261 100.083,-79.193c23.967,-14.406 5.226,154.898 -97.011,170.863c3.791,-13.062 5.822,-26.865 5.822,-41.139c0,-17.744 -3.138,-34.759 -8.894,-50.531Z" style="fill:url(#_Radial1);"/><path id="Center" d="M271.921,286.571c2.36,1.377 3.81,3.903 3.81,6.634c0,2.732 -1.45,5.258 -3.81,6.634c-16.452,9.597 -46.729,27.258 -63.279,36.913c-2.376,1.386 -5.311,1.396 -7.695,0.026c-2.385,-1.37 -3.855,-3.91 -3.855,-6.66c0,-19.251 0,-54.574 0,-73.826c0,-2.75 1.47,-5.29 3.855,-6.66c2.384,-1.369 5.319,-1.359 7.695,0.026c16.55,9.655 46.827,27.316 63.279,36.913Z" style="fill:#fff;"/></g><defs><radialGradient id="_Radial1" cx="0" cy="0" r="1" gradientUnits="userSpaceOnUse" gradientTransform="matrix(629.881,350.393,-595.579,1051.92,57.0041,190.893)"><stop offset="0" style="stop-color:#fc0;stop-opacity:1"/><stop offset="0.49" style="stop-color:#ff325b;stop-opacity:1"/><stop offset="1" style="stop-color:#ff0078;stop-opacity:1"/></radialGradient></defs></svg>